<?xml version="1.0" standalone="yes"?>

<svg version="1.1" viewBox="0.0 0.0 426.5223097112861 194.53805774278214" fill="none" stroke="none" stroke-linecap="square" stroke-miterlimit="10" xmlns="http://www.w3.org/2000/svg" xmlns:xlink="http://www.w3.org/1999/xlink"><clipPath id="p.0"><path d="m0 0l426.5223 0l0 194.53806l-426.5223 0l0 -194.53806z" clip-rule="nonzero"></path></clipPath><g clip-path="url(#p.0)"><path fill="#000000" fill-opacity="0.0" d="m0 0l426.5223 0l0 194.53806l-426.5223 0z" fill-rule="evenodd"></path><path fill="#000000" fill-opacity="0.0" d="m25.036745 12.897637l226.83464 0l0 81.95276l-226.83464 0z" fill-rule="evenodd"></path><path fill="#000000" fill-opacity="0.0" d="m-2.265092 0l485.57483 0l0 190.4252l-485.57483 0z" fill-rule="evenodd"></path><path fill="#000000" d="m65.10991 111.39563q0 10.75 -5.3125 15.625q-5.3125 4.859375 -16.453125 4.859375l-4.21875 0q-11.140625 0 -16.453125 -4.859375q-5.3125 -4.875 -5.3125 -15.625l0 -23.03125q0 -10.75 5.3125 -15.609375q5.3125 -4.875 16.453125 -4.875l4.21875 0q11.140625 0 16.453125 4.875q5.3125 4.859375 5.3125 15.609375l0 23.03125zm-10.890625 -25.59375q0 -3.96875 -2.4375 -6.140625q-2.421875 -2.1875 -7.15625 -2.1875l-6.78125 0q-4.734375 0 -7.171875 2.1875q-2.4375 2.171875 -2.4375 6.140625l0 28.15625q0 3.96875 2.4375 6.15625q2.4375 2.171875 7.171875 2.171875l6.78125 0q4.734375 0 7.15625 -2.171875q2.4375 -2.1875 2.4375 -6.15625l0 -28.15625zm43.010635 -17.921875l0 3.078125q3.96875 -3.078125 10.234375 -3.078125l4.609375 0q11.265625 0 16.515625 4.796875q5.25 4.796875 5.25 15.6875l0 23.03125q0 10.75 -5.3125 15.625q-5.3125 4.859375 -16.453125 4.859375l-14.203125 0l0 21.765625l-10.875 0l0 -85.765625l10.234375 0zm8.96875 9.59375q-4.234375 0 -6.28125 2.25q-2.046875 2.234375 -2.046875 4.796875l0 37.765625l15.484375 0q4.734375 0 7.171875 -2.171875q2.4375 -2.1875 2.4375 -6.15625l0 -28.15625q0 -3.96875 -2.4375 -6.140625q-2.4375 -2.1875 -7.171875 -2.1875l-7.15625 0zm92.15126 54.40625q-1.65625 0 -3.640625 -1.015625q-1.984375 -1.03125 -3.390625 -2.828125q-2.953125 3.84375 -7.8125 3.84375l-11.390625 0q-9.734375 0 -14.15625 -3.90625q-4.40625 -3.90625 -4.40625 -13.375l0 -2.5625q0 -19.84375 18.6875 -19.84375l15.875 0l0 -6.390625q0 -3.96875 -2.4375 -6.140625q-2.4375 -2.1875 -7.171875 -2.1875l-19.828125 0l0 -9.59375l18.546875 0q11.140625 0 16.453125 4.875q5.3125 4.859375 5.3125 15.609375l0 30.71875q0 1.921875 1.46875 2.890625q1.46875 0.953125 4.9375 0.953125l0 8.953125l-7.046875 0zm-16.125 -9.59375q3.84375 0 4.859375 -1.796875q1.03125 -1.796875 1.03125 -4.609375l0 -14.078125l-16.0 0q-3.328125 0 -5.515625 2.171875q-2.171875 2.171875 -2.171875 5.5l0 6.40625q0 3.328125 1.53125 4.875q1.546875 1.53125 4.875 1.53125l11.390625 0zm81.27626 7.296875q-4.984375 2.296875 -12.28125 2.296875l-5.125 0q-11.140625 0 -17.09375 -5.4375q-5.953125 -5.4375 -5.953125 -16.328125l0 -46.078125q0 -10.875 5.953125 -16.3125q5.953125 -5.4375 17.09375 -5.4375l5.125 0q11.125 0 17.078125 5.4375q5.953125 5.4375 5.953125 16.3125l0 46.078125q0 7.5625 -2.9375 12.671875l9.34375 9.34375l-7.296875 7.296875l-9.859375 -9.84375zm-0.375 -67.96875q0 -3.96875 -2.953125 -6.78125q-2.9375 -2.828125 -7.671875 -2.828125l-7.6875 0q-4.734375 0 -7.6875 2.828125q-2.9375 2.8125 -2.9375 6.78125l0 50.9375q0 3.96875 2.9375 6.78125q2.953125 2.8125 7.6875 2.8125l7.6875 0q4.734375 0 7.671875 -2.8125q2.953125 -2.8125 2.953125 -6.78125l0 -50.9375zm67.057495 67.328125q-4.21875 2.9375 -10.234375 2.9375l-4.34375 0q-10.375 0 -15.4375 -4.859375q-5.046875 -4.875 -5.046875 -15.625l0 -43.515625l10.875 0l0 46.078125q0 3.84375 2.234375 6.09375q2.25 2.234375 6.09375 2.234375l6.90625 0q4.09375 0 6.078125 -2.046875q1.984375 -2.0625 2.25 -4.609375l0 -47.75l10.875 0l0 64.0l-10.25 0l0 -2.9375zm55.94812 2.9375q-11.265625 0 -16.515625 -4.796875q-5.25 -4.796875 -5.25 -15.6875l0 -23.03125q0 -11.015625 4.734375 -15.75q4.734375 -4.734375 15.75 -4.734375l6.015625 0q9.078125 0 13.75 5.0625q4.671875 5.046875 4.671875 14.78125l0 16.640625l-34.046875 0l0 9.59375q0 3.96875 2.4375 6.15625q2.4375 2.171875 7.171875 2.171875l20.34375 0l0 9.59375l-19.0625 0zm12.546875 -46.71875q0 -3.328125 -2.1875 -5.5q-2.171875 -2.1875 -5.5 -2.1875l-7.421875 0q-4.609375 0 -6.46875 2.125q-1.859375 2.109375 -1.859375 6.203125l0 8.953125l23.4375 0l0 -9.59375z" fill-rule="nonzero"></path></g></svg>

